<?xml version="1.0" encoding="UTF-8" standalone="no"?>
<!DOCTYPE svg PUBLIC "-//W3C//DTD SVG 1.1//EN" "http://www.w3.org/Graphics/SVG/1.1/DTD/svg11.dtd">
<svg width="100%" height="100%" viewBox="0 0 1080 1080" version="1.1" xmlns="http://www.w3.org/2000/svg" xmlns:xlink="http://www.w3.org/1999/xlink" xml:space="preserve" xmlns:serif="http://www.serif.com/" style="fill-rule:evenodd;clip-rule:evenodd;stroke-linecap:round;stroke-linejoin:round;stroke-miterlimit:1.5;">
    <g transform="matrix(1,0,0,1,-1180,0)">
        <rect id="Logo" x="1180" y="0" width="1080" height="1080" style="fill:none;"/>
        <g id="Logo1" serif:id="Logo">
            <g transform="matrix(0.85324,0,0,0.85324,252.428,78.8239)">
                <g transform="matrix(0.406171,-5.08943e-16,9.54363e-16,-1.34649,1392.44,1098.41)">
                    <path d="M1438.75,214.443C1390.35,229.045 1314.71,264.957 1314.71,285.607L1314.71,540.147C1314.71,560.798 1390.35,599.639 1438.75,614.241" style="fill:none;stroke:black;stroke-width:33px;"/>
                </g>
                <g transform="matrix(-0.406171,-5.08943e-16,-9.54363e-16,-1.34649,2035.22,1098.41)">
                    <path d="M1438.75,214.443C1390.35,229.045 1314.71,264.957 1314.71,285.607L1314.71,540.147C1314.71,560.798 1390.35,599.639 1438.75,614.241" style="fill:none;stroke:black;stroke-width:33px;"/>
                </g>
                <g>
                    <g transform="matrix(1,0,0,1,126.515,106.799)">
                        <circle cx="1593.49" cy="433.701" r="269.163" style="fill:rgb(236,91,40);"/>
                        <clipPath id="_clip1">
                            <circle cx="1593.49" cy="433.701" r="269.163"/>
                        </clipPath>
                        <g clip-path="url(#_clip1)">
                            <g transform="matrix(0.465327,0,0,0.465327,1342.21,187.254)">
                                <g transform="matrix(1.04802,-1.81522,2.40247,1.38707,-2609.65,3105.58)">
                                    <path d="M1875.41,445.485L1651.98,499.451L1656.78,794.683L1949.66,794.683L1940.87,464.347L1875.41,445.485Z" style="fill:rgb(196,68,24);"/>
                                </g>
                                <g transform="matrix(1.01921,0,0,0.996425,-4.32706,8.3075)">
                                    <path d="M748.379,491.809C748.379,466.023 727.911,445.088 702.702,445.088L365.438,445.088C340.228,445.088 319.761,466.023 319.761,491.809L319.761,778.457C319.761,804.243 340.228,825.178 365.438,825.178L702.702,825.178C727.911,825.178 748.379,804.243 748.379,778.457L748.379,491.809Z" style="fill:white;"/>
                                </g>
                                <g transform="matrix(0.742991,0,0,1.07482,143.191,-251.832)">
                                    <path d="M748.379,593.234L748.379,677.032C748.379,758.796 652.35,825.178 534.07,825.178C415.789,825.178 319.761,758.796 319.761,677.032L319.761,593.234C319.761,511.47 415.789,445.088 534.07,445.088C652.35,445.088 748.379,511.47 748.379,593.234ZM691.89,591.637C691.89,531.425 621.173,482.54 534.07,482.54C446.966,482.54 376.249,531.425 376.249,591.637L376.249,661.019C376.249,721.231 446.966,770.116 534.07,770.116C621.173,770.116 691.89,721.231 691.89,661.019L691.89,591.637Z" style="fill:white;"/>
                                </g>
                            </g>
                        </g>
                    </g>
                    <g transform="matrix(1,0,0,1,126.515,106.799)">
                        <path d="M1593.49,164.539C1742.04,164.539 1862.65,285.146 1862.65,433.701C1862.65,582.256 1742.04,702.864 1593.49,702.864C1444.93,702.864 1324.32,582.256 1324.32,433.701C1324.32,285.146 1444.93,164.539 1593.49,164.539ZM1593.49,191.455C1727.18,191.455 1835.73,300.002 1835.73,433.701C1835.73,567.401 1727.18,675.948 1593.49,675.948C1459.79,675.948 1351.24,567.401 1351.24,433.701C1351.24,300.002 1459.79,191.455 1593.49,191.455Z"/>
                    </g>
                </g>
            </g>
        </g>
    </g>
</svg>
